<svg xmlns="http://www.w3.org/2000/svg" xmlns:xlink="http://www.w3.org/1999/xlink" width="40" height="40" viewBox="0 0 40 40">
    <defs>
        <path id="a" d="M33.417 18.45a7.383 7.383 0 0 0-3.084-2.917v-9.35A2.55 2.55 0 0 0 29.033 4 24.233 24.233 0 0 0 4.967 4a2.55 2.55 0 0 0-1.3 2.183v9.35A7.383 7.383 0 0 0 .583 18.45a1.884 1.884 0 0 0-.25.95V29a5 5 0 0 0 5 5v1.667a1.667 1.667 0 0 0 3.334 0V34h16.666v1.667a1.667 1.667 0 0 0 3.334 0V34a5 5 0 0 0 5-5v-9.6a1.884 1.884 0 0 0-.25-.95zm-3.084 1.367v2.4a60.7 60.7 0 0 0-6.666-1.184v-1.216a4.067 4.067 0 0 1 6.666 0zM7 6.633a20.967 20.967 0 0 1 20 0v8.117a7.35 7.35 0 0 0-6.417 3.7 1.883 1.883 0 0 0-.25.95v1.35a55.6 55.6 0 0 0-6.666 0V19.4a1.883 1.883 0 0 0-.25-.95A7.35 7.35 0 0 0 7 14.75V6.633zm3.333 13.184v1.216a60.7 60.7 0 0 0-6.666 1.184v-2.4a4.067 4.067 0 0 1 6.666 0zm18.334 10.85H5.333c-.92 0-1.666-.747-1.666-1.667v-2.917a.583.583 0 0 1 .433-.55 54.45 54.45 0 0 1 25.8 0c.25.067.427.291.433.55V29c0 .92-.746 1.667-1.666 1.667z"/>
    </defs>
    <g fill="none" fill-rule="evenodd">
        <path fill="#FFF" d="M-573-4227h1736v7403H-573z"/>
        <g transform="translate(3 1)">
            <mask id="b" fill="#fff">
                <use xlink:href="#a"/>
            </mask>
            <g fill="#DA394D" mask="url(#b)">
                <path d="M-3-1h40v40H-3z"/>
            </g>
        </g>
    </g>
</svg>
