<svg xmlns="http://www.w3.org/2000/svg" xmlns:xlink="http://www.w3.org/1999/xlink" width="20" height="20" viewBox="0 0 20 20">
    <defs>
        <path id="a" d="M9.4.775a6.667 6.667 0 0 0-5.108 10.95L1.108 14.9a.837.837 0 0 0 1.184 1.183L5.5 12.85a6.592 6.592 0 0 0 3.883 1.258 6.667 6.667 0 1 0 0-13.333H9.4zm0 11.667a5 5 0 1 1 0-10 5 5 0 0 1 0 10z"/>
    </defs>
    <g fill="none" fill-rule="evenodd">
        <path fill="#FFF" d="M-1363-204H373v7403h-1736z"/>
        <path d="M-1045-20H55v60h-1100z"/>
        <g transform="translate(-169 -8)">
            <rect width="199" height="36" fill="#000" fill-opacity=".06" rx="18"/>
            <g transform="translate(171 9)">
                <mask id="b" fill="#fff">
                    <use xlink:href="#a"/>
                </mask>
                <g fill="#000" mask="url(#b)">
                    <path d="M-2-1h20v20H-2z"/>
                </g>
            </g>
        </g>
    </g>
</svg>
