<svg xmlns="http://www.w3.org/2000/svg" xmlns:xlink="http://www.w3.org/1999/xlink" width="40" height="40" viewBox="0 0 40 40">
    <defs>
        <path id="a" d="M.667 25.5v7.7a2.3 2.3 0 0 0 2.3 2.3h15.4a2.3 2.3 0 0 0 2.3-2.3v-7.7a10 10 0 0 0-3.334-7.5v-2.5a5 5 0 0 0-5-5V7.167H14c.094.008.19.008.283 0A5 5 0 0 0 19 10.5h3.333a5 5 0 0 0 0-10H19a5 5 0 0 0-4.717 3.333 1.667 1.667 0 0 0-.283 0h-1.667V2.167a1.667 1.667 0 1 0-3.333 0V10.5a5 5 0 0 0-5 5V18a10 10 0 0 0-3.333 7.5zM19 3.833h3.333a1.667 1.667 0 1 1 0 3.334H19a1.667 1.667 0 0 1 0-3.334zM7.333 15.5c0-.92.747-1.667 1.667-1.667h3.333c.92 0 1.667.747 1.667 1.667v.583a9.817 9.817 0 0 0-6.667 0V15.5zM4 25.5a6.667 6.667 0 0 1 13.333 0v6.667H4V25.5z"/>
    </defs>
    <g fill="none" fill-rule="evenodd">
        <path fill="#FFF" d="M-1123-4228H613v7403h-1736z"/>
        <g transform="translate(6 2)">
            <mask id="b" fill="#fff">
                <use xlink:href="#a"/>
            </mask>
            <g fill="#C3C3C3" mask="url(#b)">
                <path d="M-6-2h40v40H-6z"/>
            </g>
        </g>
    </g>
</svg>
