<svg xmlns="http://www.w3.org/2000/svg" xmlns:xlink="http://www.w3.org/1999/xlink" width="40" height="40" viewBox="0 0 40 40">
    <defs>
        <path id="a" d="M33.067 1.683L26.583.667a5 5 0 0 0-5.65 4.016l-.266 1.584a1.667 1.667 0 0 1-3.334 0l-.3-1.534A5 5 0 0 0 11.417.667l-6.484.966a5 5 0 0 0-4.266 5v5.6A4.183 4.183 0 0 0 4.733 16.5c.516 0 .934.418.934.933v14.9a5 5 0 0 0 5 5h15.166a4.833 4.833 0 0 0 4.834-4.833V17.85a1.383 1.383 0 0 1 1.466-1.35 5 5 0 0 0 5.2-4.783v-5a5 5 0 0 0-4.266-5.034zm.933 10a1.5 1.5 0 0 1-1.467 1.534 5 5 0 0 0-5.2 4.75v14.366c0 .92-.746 1.667-1.666 1.667h-15C9.747 34 9 33.254 9 32.333v-14.9a4.183 4.183 0 0 0-4.067-4.266.933.933 0 0 1-.933-.934v-5.6a1.667 1.667 0 0 1 1.417-1.666l6.5-.967A1.667 1.667 0 0 1 13.8 5.333l.283 1.55a5 5 0 0 0 9.834 0l.283-1.55c.169-.877 1-1.465 1.883-1.333l6.5.967A1.667 1.667 0 0 1 34 6.633v5.05z"/>
    </defs>
    <g fill="none" fill-rule="evenodd">
        <path fill="#FFF" d="M-793-4227H943v7403H-793z"/>
        <g transform="translate(1 1)">
            <mask id="b" fill="#fff">
                <use xlink:href="#a"/>
            </mask>
            <g fill="#C3C3C3" mask="url(#b)">
                <path d="M-1-1h40v40H-1z"/>
            </g>
        </g>
    </g>
</svg>
