<svg xmlns="http://www.w3.org/2000/svg" xmlns:xlink="http://www.w3.org/1999/xlink" width="40" height="40" viewBox="0 0 40 40">
    <defs>
        <path id="a" d="M32.333 5.167A5 5 0 0 1 37.33 9.95l.004.217v16.666a5 5 0 0 1-4.783 4.996l-.217.004H5.667A5 5 0 0 1 .67 27.05l-.004-.217V10.167A5 5 0 0 1 5.45 5.17l.217-.004h26.666zm0 3.333H5.667c-.872 0-1.588.67-1.66 1.523L4 10.167v16.666c0 .872.67 1.588 1.523 1.66l.144.007h26.666c.872 0 1.588-.67 1.66-1.523l.007-.144V10.167c0-.92-.746-1.667-1.667-1.667zm-12.85 2.717a6.667 6.667 0 1 1 0 13.333 6.667 6.667 0 0 1 0-13.333zm0 3.333a3.333 3.333 0 1 0 0 6.667 3.333 3.333 0 0 0 0-6.667zm10-3.333a1.667 1.667 0 1 1 0 3.333 1.667 1.667 0 0 1 0-3.333zM12.817.167a1.667 1.667 0 0 1 0 3.333H6.15a1.667 1.667 0 0 1 0-3.333z"/>
    </defs>
    <g fill="none" fill-rule="evenodd">
        <path fill="#FFF" d="M-1013-4227H723v7403h-1736z"/>
        <g transform="translate(1 4)">
            <mask id="b" fill="#fff">
                <use xlink:href="#a"/>
            </mask>
            <g fill="#DA394D" mask="url(#b)">
                <path d="M-1-4h40v40H-1z"/>
            </g>
        </g>
    </g>
</svg>
