<svg xmlns="http://www.w3.org/2000/svg" xmlns:xlink="http://www.w3.org/1999/xlink" width="40" height="40" viewBox="0 0 40 40">
    <defs>
        <path id="a" d="M27.355 1.575l.128.006.13.019c.86.168 1.402 1.152 1.26 2.24l-.026.163-5.791 29.844c-.222 1.15-1.134 1.94-2.038 1.762-.86-.169-1.402-1.153-1.26-2.24l.026-.163 5.791-29.844c.2-1.041.966-1.786 1.78-1.787zm-23.03.981l.036.16 3.454 17.77a7.5 7.5 0 1 1-3.272.636L1.09 3.351c-.22-1.13.335-2.188 1.239-2.364.86-.167 1.727.526 1.997 1.568zM21.011.57c.872.092 1.496 1.03 1.446 2.134l-.012.167-3.18 30.248c-.123 1.174-.965 2.048-1.88 1.952-.872-.092-1.496-1.03-1.447-2.134l.013-.167L19.13 2.521c.123-1.174.965-2.048 1.88-1.952zM6.78 23.893a4.167 4.167 0 1 0 1.59 8.18 4.167 4.167 0 0 0-1.59-8.18z"/>
    </defs>
    <g fill="none" fill-rule="evenodd">
        <path fill="#FFF" d="M-903-4227H833v7403H-903z"/>
        <g transform="matrix(1 0 0 -1 7.667 39)">
            <mask id="b" fill="#fff">
                <use xlink:href="#a"/>
            </mask>
            <use fill="#FFF" xlink:href="#a"/>
            <g fill="#C3C3C3" mask="url(#b)">
                <path d="M-8-1h40v40H-8z"/>
            </g>
        </g>
    </g>
</svg>
