<?xml version="1.0" encoding="utf-8"?>
<!-- Generator: Adobe Illustrator 22.0.1, SVG Export Plug-In . SVG Version: 6.00 Build 0)  -->
<svg version="1.1" id="레이어_1" xmlns="http://www.w3.org/2000/svg" xmlns:xlink="http://www.w3.org/1999/xlink" x="0px"
	 y="0px" viewBox="0 0 60 60" style="enable-background:new 0 0 60 60;" xml:space="preserve">
<style type="text/css">
	.st0{fill:#FFFFFF;stroke:#040000;stroke-miterlimit:10;}
	.st1{fill:#CE3948;}
</style>
<g>
	<path class="st0" d="M46.4,44.7H13.6c-1.8,0-3.3-1.5-3.3-3.3V18.7c0-1.8,1.5-3.3,3.3-3.3h32.9c1.8,0,3.3,1.5,3.3,3.3v22.7
		C49.8,43.2,48.3,44.7,46.4,44.7z"/>
	<circle class="st1" cx="30" cy="30.1" r="4.3"/>
	<path class="st1" d="M30,19C23.9,19,19,23.9,19,30s5,11.1,11.1,11.1s11.1-5,11.1-11.1S36.2,19,30,19z M30,37.4
		c-4.1,0-7.4-3.3-7.4-7.4s3.3-7.4,7.4-7.4s7.4,3.3,7.4,7.4S34.1,37.4,30,37.4z"/>
</g>
</svg>
