<?xml version="1.0" encoding="utf-8"?>
<!-- Generator: Adobe Illustrator 22.0.1, SVG Export Plug-In . SVG Version: 6.00 Build 0)  -->
<svg version="1.1" id="레이어_1" xmlns="http://www.w3.org/2000/svg" xmlns:xlink="http://www.w3.org/1999/xlink" x="0px"
	 y="0px" viewBox="0 0 100 100" style="enable-background:new 0 0 100 100;" xml:space="preserve">
<style type="text/css">
	.st0{fill:none;stroke:#FFFFFF;stroke-width:3;stroke-linejoin:round;stroke-miterlimit:10;}
</style>
<path class="st0" d="M83.9,67l-9.1-9.1c-2.5,1.6-7.5,4.3-12.5,2.3c-6.1-2.5-9.8-5.6-11.4-7.1l0,0c0,0-0.2-0.1-0.5-0.4
	c-0.3-0.3-0.4-0.5-0.4-0.5l0,0c-1.5-1.6-4.7-5.3-7.1-11.4c-2-5,0.7-9.9,2.3-12.5L36,19.1c0,0-7.8,2.1-11.1,9.3
	c-1.7,3.8-2.2,11.7,17.3,31.5l0,0c0.2,0.2,0.3,0.3,0.5,0.5c0.2,0.2,0.3,0.3,0.5,0.5l0,0c19.7,19.5,27.7,19,31.5,17.3
	C81.8,74.8,83.9,67,83.9,67z"/>
</svg>
