<?xml version="1.0" encoding="utf-8"?>
<!-- Generator: Adobe Illustrator 16.0.0, SVG Export Plug-In . SVG Version: 6.00 Build 0)  -->
<!DOCTYPE svg PUBLIC "-//W3C//DTD SVG 1.1//EN" "http://www.w3.org/Graphics/SVG/1.1/DTD/svg11.dtd">
<svg version="1.1" id="Layer_1" xmlns="http://www.w3.org/2000/svg" xmlns:xlink="http://www.w3.org/1999/xlink" x="0px" y="0px"
	 width="200px" height="200px" viewBox="0 0 200 200" enable-background="new 0 0 200 200" xml:space="preserve">
<g>
	<g>
		<path fill="#343434" d="M199.25,13.871c-1.324-2.853-4.184-4.678-7.329-4.678H8.079c-3.145,0-6.005,1.825-7.329,4.678
			s-0.871,6.215,1.16,8.617l71.626,84.699v57.157c0,3.061,1.729,5.857,4.466,7.227l36.769,18.385
			c1.141,0.57,2.378,0.853,3.613,0.853c1.477,0,2.949-0.405,4.247-1.207c2.382-1.472,3.831-4.072,3.831-6.872v-75.542l71.627-84.699
			C200.121,20.086,200.573,16.724,199.25,13.871z M112.215,99.012c-1.232,1.458-1.91,3.307-1.91,5.217v65.428l-20.61-10.305v-55.123
			c0-1.91-0.677-3.758-1.91-5.217L25.492,25.35h149.016L112.215,99.012z"/>
	</g>
</g>
</svg>
