<?xml version="1.0" encoding="utf-8"?>
<!-- Generator: Adobe Illustrator 24.0.2, SVG Export Plug-In . SVG Version: 6.00 Build 0)  -->
<svg version="1.1" id="레이어_1" xmlns="http://www.w3.org/2000/svg" xmlns:xlink="http://www.w3.org/1999/xlink" x="0px"
	 y="0px" viewBox="0 0 20 20" style="enable-background:new 0 0 20 20;" xml:space="preserve">
<style type="text/css">
	.st0{filter:url(#Adobe_OpacityMaskFilter);}
	.st1{fill-rule:evenodd;clip-rule:evenodd;fill:#FFFFFF;}
	.st2{mask:url(#b_1_);}
	.st3{fill-rule:evenodd;clip-rule:evenodd;}
</style>
<g>
	<g transform="translate(-169 -8)">
		<g transform="translate(171 9)">
			<defs>
				<filter id="Adobe_OpacityMaskFilter" filterUnits="userSpaceOnUse" x="1.4" y="2.4" width="13.1" height="13.1">
					<feColorMatrix  type="matrix" values="1 0 0 0 0  0 1 0 0 0  0 0 1 0 0  0 0 0 1 0"/>
				</filter>
			</defs>
			<mask maskUnits="userSpaceOnUse" x="1.4" y="2.4" width="13.1" height="13.1" id="b_1_">
				<g class="st0">
					<path id="a_1_" class="st1" d="M8.9,3.6c-2.4,0-4.4,2-4.4,4.4c0,1,0.4,2,1,2.8l-2.1,2.1c-0.2,0.2-0.2,0.6,0,0.8
						c0.2,0.2,0.5,0.2,0.8,0l2.1-2.1c0.7,0.5,1.6,0.8,2.5,0.8c2.4,0,4.4-1.9,4.4-4.3C13.4,5.6,11.4,3.6,8.9,3.6
						C9,3.6,8.9,3.6,8.9,3.6C8.9,3.6,8.9,3.6,8.9,3.6z M8.9,11.3c-1.8,0-3.3-1.5-3.3-3.3s1.5-3.3,3.3-3.3s3.3,1.5,3.3,3.3
						S10.7,11.3,8.9,11.3z"/>
				</g>
			</mask>
			<g class="st2">
				<path class="st3" d="M1.4,2.4h13.1v13.1H1.4V2.4z"/>
			</g>
		</g>
	</g>
</g>
</svg>
