<?xml version="1.0" encoding="utf-8"?>
<!-- Generator: Adobe Illustrator 22.0.1, SVG Export Plug-In . SVG Version: 6.00 Build 0)  -->
<svg version="1.1" id="레이어_1" xmlns="http://www.w3.org/2000/svg" xmlns:xlink="http://www.w3.org/1999/xlink" x="0px"
	 y="0px" viewBox="0 0 100 100" style="enable-background:new 0 0 100 100;" xml:space="preserve">
<style type="text/css">
	.st0{fill:#343434;}
	.st1{fill:none;stroke:#343434;stroke-width:3;stroke-linecap:round;stroke-linejoin:round;stroke-miterlimit:10;}
</style>
<g>
	<g>
		<path class="st0" d="M45.4,20.4c6.8,0,13.2,2.6,18,7.4s7.4,11.2,7.4,18s-2.6,13.2-7.4,18s-11.2,7.4-18,7.4s-13.2-2.6-18-7.4
			c-9.9-9.9-9.9-26,0-35.9C32.2,23.1,38.6,20.4,45.4,20.4 M45.4,17.4c-7.3,0-14.5,2.8-20.1,8.3c-11.1,11.1-11.1,29.1,0,40.2
			c5.5,5.5,12.8,8.3,20.1,8.3s14.5-2.8,20.1-8.3c11.1-11.1,11.1-29.1,0-40.2C59.9,20.2,52.7,17.4,45.4,17.4L45.4,17.4z"/>
	</g>
	<g>
		<line class="st1" x1="65.9" y1="65.5" x2="83" y2="82.6"/>
	</g>
</g>
</svg>
