<?xml version="1.0" encoding="utf-8"?>
<!-- Generator: Adobe Illustrator 22.0.1, SVG Export Plug-In . SVG Version: 6.00 Build 0)  -->
<svg version="1.1" id="레이어_1" xmlns="http://www.w3.org/2000/svg" xmlns:xlink="http://www.w3.org/1999/xlink" x="0px"
	 y="0px" viewBox="0 0 100 100" style="enable-background:new 0 0 100 100;" xml:space="preserve">
<style type="text/css">
	.st0{fill:none;stroke:#FFFFFF;stroke-width:3;stroke-linejoin:round;stroke-miterlimit:10;}
	.st1{fill:none;stroke:#FFFFFF;stroke-width:3;stroke-miterlimit:10;}
	.st2{fill:#CE3948;}
</style>
<g>
	<path class="st0" d="M88.5,51.2L79,47.3L73.2,32H58.9v19.9H21v-0.2h-9.5v16.8H22c1.3-2.9,4.2-4.8,7.5-4.8s6.2,2,7.5,4.8h25.9
		c1.3-2.9,4.2-4.8,7.5-4.8c3.3,0,6.2,2,7.5,4.8h10.4V51.2z"/>
	<path class="st1" d="M22,68.6c-0.5,1.1-0.8,2.2-0.8,3.5c0,4.6,3.7,8.3,8.3,8.3s8.3-3.7,8.3-8.3c0-1.2-0.3-2.4-0.8-3.5"/>
	<path class="st0" d="M37.1,68.6c-1.3-2.9-4.2-4.8-7.5-4.8s-6.2,2-7.5,4.8"/>
	<path class="st1" d="M62.9,68.6c-0.5,1.1-0.8,2.2-0.8,3.5c0,4.6,3.7,8.3,8.3,8.3c4.6,0,8.3-3.7,8.3-8.3c0-1.2-0.3-2.4-0.8-3.5"/>
	<path class="st0" d="M78,68.6c-1.3-2.9-4.2-4.8-7.5-4.8c-3.3,0-6.2,2-7.5,4.8"/>
	<path class="st0" d="M56,51.7 M58.9,32V19.7H21v32.1 M56.2,32"/>
	<rect x="34.2" y="21.3" class="st2" width="11.6" height="20.1"/>
</g>
</svg>
