<svg xmlns="http://www.w3.org/2000/svg" xmlns:xlink="http://www.w3.org/1999/xlink" width="40" height="40" viewBox="0 0 40 40">
    <defs>
        <path id="a" d="M19 .667C8.875.667.667 8.875.667 19 .667 29.125 8.875 37.333 19 37.333c10.125 0 18.333-8.208 18.333-18.333A18.333 18.333 0 0 0 19 .667zM16 33.7a15 15 0 0 1-6.35-3.033L19 21.35l1.25 1.25A18.167 18.167 0 0 0 16 33.7zm6.667-8.733l5.683 5.7A14.9 14.9 0 0 1 19.333 34a14.85 14.85 0 0 1 3.267-9.033h.067zm2.366-2.367a14.85 14.85 0 0 1 9.017-3.333 14.9 14.9 0 0 1-3.333 9.016L25.033 22.6zm-2.366-2.35L21.35 19l9.317-9.35A15 15 0 0 1 33.65 16a18.167 18.167 0 0 0-11.05 4.25h.067zm-9.634-4.85A14.85 14.85 0 0 1 4 18.667 14.9 14.9 0 0 1 7.333 9.65l5.7 5.75zM9.65 7.333A14.9 14.9 0 0 1 18.667 4a14.85 14.85 0 0 1-3.334 9.017L9.65 7.333zM22 4.3a15 15 0 0 1 6.35 3.033L19 16.65l-1.25-1.25A18.167 18.167 0 0 0 22 4.3zM4.3 22a18.167 18.167 0 0 0 11.1-4.25L16.65 19l-9.317 9.35A15 15 0 0 1 4.3 22z"/>
    </defs>
    <g fill="none" fill-rule="evenodd">
        <path fill="#FFF" d="M-683-4227h1736v7403H-683z"/>
        <g transform="translate(1 1)">
            <mask id="b" fill="#fff">
                <use xlink:href="#a"/>
            </mask>
            <g fill="#C3C3C3" mask="url(#b)">
                <path d="M-1-1h40v40H-1z"/>
            </g>
        </g>
    </g>
</svg>
