<?xml version="1.0" encoding="utf-8"?>
<!-- Generator: Adobe Illustrator 24.0.2, SVG Export Plug-In . SVG Version: 6.00 Build 0)  -->
<svg version="1.1" id="레이어_1" xmlns="http://www.w3.org/2000/svg" xmlns:xlink="http://www.w3.org/1999/xlink" x="0px"
	 y="0px" viewBox="0 0 60 60" style="enable-background:new 0 0 60 60;" xml:space="preserve">
<style type="text/css">
	.st0{fill:#CE3948;}
	.st1{fill:#FFFFFF;stroke:#000000;stroke-miterlimit:10;}
</style>
<g>
	<circle class="st0" cx="44.2" cy="28" r="4.7"/>
	<path class="st1" d="M26.5,46.4c0.4,0.3,0.1,0.8-0.4,0.8c-1.5,0-4.2,0-4.3-0.1c-3.8-1.3-7.2-6.5-6.3-12.7c0-0.3,0.3-0.4,0.6-0.4H20
		c0.4,0,0.7,0.2,0.6,0.5C20.3,39.5,22.1,42.8,26.5,46.4z"/>
	<path class="st1" d="M41.1,13l-14.4,8.3H18v5.1c-1.1,0.8-1.1,2.5,0,3.3v5.1h8.8l14.3,8.3c1.4,0.8,3.2-0.2,3.2-1.8V14.8
		C44.3,13.2,42.5,12.2,41.1,13z"/>
	<path class="st1" d="M22.9,34.8h-9.6c-1.2,0-2.2-1-2.2-2.2v-9.1c0-1.2,1-2.2,2.2-2.2h9.6V34.8z"/>
</g>
</svg>
