<?xml version="1.0" encoding="utf-8"?>
<!-- Generator: Adobe Illustrator 24.0.2, SVG Export Plug-In . SVG Version: 6.00 Build 0)  -->
<svg version="1.1" id="레이어_1" xmlns="http://www.w3.org/2000/svg" xmlns:xlink="http://www.w3.org/1999/xlink" x="0px"
	 y="0px" viewBox="0 0 60 60" style="enable-background:new 0 0 60 60;" xml:space="preserve">
<style type="text/css">
	.st0{fill:#FFFFFF;stroke:#000000;stroke-width:0.9189;stroke-miterlimit:10;}
	.st1{fill:none;stroke:#000000;stroke-width:0.9189;stroke-miterlimit:10;}
	.st2{fill:#CE3948;}
</style>
<g>
	<polygon class="st0" points="29,46.4 47.2,28.6 40.3,20.2 17.8,20.2 10.9,28.6 	"/>
	<line class="st1" x1="10.9" y1="28.6" x2="47.4" y2="28.6"/>
	<polyline class="st1" points="25.1,20.3 21.9,28.5 29,46.4 	"/>
	<polyline class="st1" points="33,20.3 36.2,28.5 29,46.4 	"/>
</g>
<path class="st2" d="M46.9,19.1c-0.8-2.2-2.6-4-4.8-4.8c-0.4-0.1-0.4-0.6,0-0.8c2.2-0.8,4-2.6,4.8-4.8c0.1-0.4,0.6-0.4,0.8,0
	c0.8,2.2,2.6,4,4.8,4.8c0.4,0.1,0.4,0.6,0,0.8c-2.2,0.8-4,2.6-4.8,4.8C47.5,19.5,47,19.5,46.9,19.1z"/>
<path class="st2" d="M10.9,51.2c-0.8-2.2-2.6-4-4.8-4.8c-0.4-0.1-0.4-0.6,0-0.8c2.2-0.8,4-2.6,4.8-4.8c0.1-0.4,0.6-0.4,0.8,0
	c0.8,2.2,2.6,4,4.8,4.8c0.4,0.1,0.4,0.6,0,0.8c-2.2,0.8-4,2.6-4.8,4.8C11.5,51.6,11,51.6,10.9,51.2z"/>
</svg>
